<mxfile host="app.diagrams.net" modified="2023-08-12T13:39:03.630Z" agent="Mozilla/5.0 (Windows NT 10.0; Win64; x64) AppleWebKit/537.36 (KHTML, like Gecko) Chrome/115.0.0.0 Safari/537.36" etag="eEuIbo-_eGJ7c49FXSYE" version="21.6.8" type="github">
  <diagram name="Halaman-1" id="KOUSG7HFB2AcRxu7Totx">
    <mxGraphModel dx="607" dy="308" grid="1" gridSize="10" guides="1" tooltips="1" connect="1" arrows="1" fold="1" page="1" pageScale="1" pageWidth="827" pageHeight="1169" math="0" shadow="0">
      <root>
        <mxCell id="0" />
        <mxCell id="1" parent="0" />
        <mxCell id="YAdSg8_cNeBtJVIXIS_c-1" value="Admin" style="shape=umlActor;verticalLabelPosition=bottom;verticalAlign=top;html=1;outlineConnect=0;" vertex="1" parent="1">
          <mxGeometry x="230" y="220" width="30" height="60" as="geometry" />
        </mxCell>
        <mxCell id="YAdSg8_cNeBtJVIXIS_c-2" value="Mengelola venue" style="ellipse;whiteSpace=wrap;html=1;" vertex="1" parent="1">
          <mxGeometry x="354" y="70" width="120" height="80" as="geometry" />
        </mxCell>
        <mxCell id="YAdSg8_cNeBtJVIXIS_c-4" value="Menampilkan laporan pemesanan venue" style="ellipse;whiteSpace=wrap;html=1;" vertex="1" parent="1">
          <mxGeometry x="354" y="170" width="120" height="80" as="geometry" />
        </mxCell>
        <mxCell id="YAdSg8_cNeBtJVIXIS_c-5" value="Penyewa" style="shape=umlActor;verticalLabelPosition=bottom;verticalAlign=top;html=1;outlineConnect=0;" vertex="1" parent="1">
          <mxGeometry x="230" y="390" width="30" height="60" as="geometry" />
        </mxCell>
        <mxCell id="YAdSg8_cNeBtJVIXIS_c-6" value="Melihat detail venue" style="ellipse;whiteSpace=wrap;html=1;" vertex="1" parent="1">
          <mxGeometry x="354" y="310" width="120" height="80" as="geometry" />
        </mxCell>
      </root>
    </mxGraphModel>
  </diagram>
</mxfile>
